HIERARCHY
ROOT Hips
{
	OFFSET 0.00000 0.00000 0.00000
	CHANNELS 6 Xposition Yposition Zposition Zrotation Yrotation Xrotation 
	JOINT LHipJoint
	{
		OFFSET 0 0 0
		CHANNELS 3 Zrotation Yrotation Xrotation
		JOINT LeftHip
		{
			OFFSET 1.61024 -1.73873 0.75100
			CHANNELS 3 Zrotation Yrotation Xrotation
			JOINT LeftKnee
			{
				OFFSET 2.29819 -6.31424 0.00000
				CHANNELS 3 Zrotation Yrotation Xrotation
				JOINT LeftAnkle
				{
					OFFSET 2.76618 -7.60002 0.00000
					CHANNELS 3 Zrotation Yrotation Xrotation
					JOINT LeftToe
					{
						OFFSET 0.16838 -0.46263 2.02361
						CHANNELS 3 Zrotation Yrotation Xrotation
						End Site
						{
							OFFSET 0.00000 -0.00000 1.04662
						}
					}
				}
			}
		}
	}
	JOINT RHipJoint
	{
		OFFSET 0 0 0
		CHANNELS 3 Zrotation Yrotation Xrotation
		JOINT RightHip
		{
			OFFSET -1.46153 -1.73873 0.75100
			CHANNELS 3 Zrotation Yrotation Xrotation
			JOINT RightKnee
			{
				OFFSET -2.38373 -6.54924 0.00000
				CHANNELS 3 Zrotation Yrotation Xrotation
				JOINT RightAnkle
				{
					OFFSET -2.80314 -7.70157 0.00000
					CHANNELS 3 Zrotation Yrotation Xrotation
					JOINT RightToe
					{
						OFFSET -0.16142 -0.44349 2.02101
						CHANNELS 3 Zrotation Yrotation Xrotation
						End Site
						{
							OFFSET -0.00000 -0.00000 1.04381
						}
					}
				}
			}
		}
	}
	JOINT lowerback
	{
		OFFSET 0 0 0
		CHANNELS 3 Zrotation Yrotation Xrotation
		JOINT Chest
		{
			OFFSET -0.01629 1.66985 0.14750
			CHANNELS 3 Zrotation Yrotation Xrotation
			JOINT Chest2
			{
				OFFSET 0.02086 1.62378 0.20980
				CHANNELS 3 Zrotation Yrotation Xrotation
				JOINT lowerneck
				{
					OFFSET 0 0 0
					CHANNELS 3 Zrotation Yrotation Xrotation
					JOINT Neck
					{
						OFFSET -0.05690 1.78719 0.08702
						CHANNELS 3 Zrotation Yrotation Xrotation
						JOINT Head
						{
							OFFSET 0.16035 1.73871 -0.38470
							CHANNELS 3 Zrotation Yrotation Xrotation
							End Site
							{
								OFFSET 0.05645 1.80914 -0.14081
							}
						}
					}
				}
				JOINT LeftCollar
				{
					OFFSET 0 0 0
					CHANNELS 3 Zrotation Yrotation Xrotation
					JOINT LeftShoulder
					{
						OFFSET 2.83089 1.66494 -0.46008
CHANNELS 3 Zrotation Xrotation Yrotation
						JOINT LeftElbow
						{
OFFSET 0 -5.548930 -0.000000
CHANNELS 3 Zrotation Xrotation Yrotation
							JOINT LeftWrist
							{
OFFSET 0 -3.028980 -0.000000
CHANNELS 3 Zrotation Xrotation Yrotation
								JOINT lhand
								{
									OFFSET 0 0 0
CHANNELS 3 Zrotation Xrotation Yrotation
									JOINT LFingers
									{
OFFSET 0 -0.640950 -0.000000
CHANNELS 3 Zrotation Xrotation Yrotation
										End Site
										{
OFFSET 0 -0.516750 -0.000000
										}
									}
								}
								JOINT LThumb
								{
OFFSET 0 0.000000 0.000000
CHANNELS 3 Zrotation Xrotation Yrotation
									End Site
									{
OFFSET 0 -0.524640 0.524640
									}
								}
							}
						}
					}
				}
				JOINT RightCollar
				{
					OFFSET 0 0 0
					CHANNELS 3 Zrotation Yrotation Xrotation
					JOINT RightShoulder
					{
						OFFSET -2.84442 1.45761 -0.18088
CHANNELS 3 Zrotation Xrotation Yrotation
						JOINT RightElbow
						{
OFFSET 0 -5.351900 -0.000000
CHANNELS 3 Zrotation Xrotation Yrotation
							JOINT RightWrist
							{
OFFSET 0 -3.025310 -0.000000
CHANNELS 3 Zrotation Xrotation Yrotation
								JOINT rhand
								{
									OFFSET 0 0 0
CHANNELS 3 Zrotation Xrotation Yrotation
									JOINT RFingers
									{
OFFSET 0 -0.783890 -0.000000
CHANNELS 3 Zrotation Xrotation Yrotation
										End Site
										{
OFFSET 0 -0.631990 -0.000000
										}
									}
								}
								JOINT RThumb
								{
OFFSET 0 0.000000 0.000000
CHANNELS 3 Zrotation Xrotation Yrotation
									End Site
									{
OFFSET 0 -0.641640 0.641640
									}
								}
							}
						}
					}
				}
			}
		}
	}
}
MOTION
Frames: 6
Frame Time: 0.008333333333333333
0.614752 17.797080 0.151154 -894.961843 62.092642 -881.290496 0.000000 0.000000 0.000000 -9.954493 -31.610829 -5.992037 0.317791 3.623788 10.020485 0.270437 2.802449 -11.264899 2.257897 -9.383578 -27.002841 0.000000 0.000000 0.000000 20.490887 0.322061 -12.424630 -1.155673 -6.825181 19.198607 0.065790 -16.166818 -22.282511 -1.204662 6.963403 -19.606835 1.462308 3.724693 -9.861622 -1.827142 6.732120 -16.249044 -2.966150 3.800724 -11.784230 0.267288 -2.344337 -9.126014 10.593469 -3.581935 4.246353 3.315356 -1.221055 3.262603 0.000000 0.000000 0.000000 102.700668 -60.375692 -31.817813 71.806458 -58.711429 44.312049 -10.996691 -87.677872 -20.859168 0.000000 0.000000 0.000000 -7.125000 0.000000 0.000000 -37.025267 47.163903 2.283102 0.000000 0.000000 0.000000 -147.749845 -44.528226 -64.636796 -24.600203 -35.791871 -8.055248 6.469620 -18.521326 -20.965770 0.000000 0.000000 0.000000 7.125000 0.000000 0.000000 21.941615 9.987113 19.317711
0.605489 17.792254 0.141528 -896.277055 62.651436 -882.622576 0.000000 0.000000 0.000000 -10.940947 -31.249825 -5.130477 0.247833 3.203201 8.844973 0.226160 3.251785 -10.787643 1.828652 -8.499392 -24.241706 0.000000 0.000000 0.000000 19.691697 0.960183 -12.391610 -1.219233 -7.003871 19.726925 -0.011163 -16.337458 -23.276625 -1.090173 6.635637 -18.640203 3.053390 5.294266 -10.178185 -2.899079 8.815102 -16.578877 -4.930930 4.614466 -11.521230 -0.011142 -3.002136 -7.250853 12.144749 -4.442848 4.730170 3.475329 -1.577505 2.888373 0.000000 0.000000 0.000000 105.015329 -57.133287 -31.086785 84.977248 -59.904074 55.651658 -14.202217 -88.525678 -21.586529 0.000000 0.000000 0.000000 -7.125000 0.000000 0.000000 -40.088832 47.298668 2.697491 0.000000 0.000000 0.000000 -164.002093 -52.193373 -118.965745 -7.376843 -12.537765 -0.811512 7.282927 27.307320 -22.194700 0.000000 0.000000 0.000000 7.125000 0.000000 0.000000 22.304728 8.849071 20.250825
0.610828 17.778002 0.162091 -897.766805 64.545420 -884.468626 0.000000 0.000000 0.000000 -12.397062 -29.726739 -3.883087 0.195667 2.848640 7.857773 0.182298 3.979699 -10.532857 2.029303 -8.926774 -25.566469 0.000000 0.000000 0.000000 18.822507 2.621048 -10.111071 -0.982569 -6.309312 17.684673 -0.007004 -17.247903 -24.505326 -0.923844 6.123427 -17.142971 4.016763 6.169724 -10.141286 -3.154067 9.845578 -16.271720 -5.623617 4.996221 -10.884010 -1.967386 -3.432539 -8.024259 15.264163 -5.041912 5.371349 4.725257 -1.670487 3.392038 0.000000 0.000000 0.000000 108.856977 -51.077943 -26.537916 100.655692 -59.565627 69.214546 -19.527267 -86.424956 -23.679802 0.000000 0.000000 0.000000 -7.125000 0.000000 0.000000 -45.720580 48.140984 4.426889 0.000000 0.000000 0.000000 -162.588824 -61.394669 -117.785566 -6.663165 -11.363543 -0.663670 12.229883 36.505326 -21.418907 0.000000 0.000000 0.000000 7.125000 0.000000 0.000000 25.199686 9.538223 23.099497
0.629678 17.748163 0.239186 -900.506805 66.997562 -886.874144 0.000000 0.000000 0.000000 -13.731754 -27.724329 -3.237014 0.127028 2.296998 6.327114 0.149373 4.359057 -10.209880 2.084126 -9.039158 -25.917834 0.000000 0.000000 0.000000 17.811897 6.421278 -6.180280 -0.534722 -4.685430 13.013469 0.174992 -20.179812 -27.169025 -0.534816 4.685701 -13.014190 3.731799 6.610906 -9.987113 -3.285566 10.353270 -16.048937 -5.573183 5.252097 -10.656692 -3.259276 -3.605834 -8.020196 17.418549 -5.166012 4.949155 5.615767 -1.653033 3.381461 0.000000 0.000000 0.000000 115.982277 -43.830910 -17.949703 112.336806 -58.028146 79.216122 -31.792976 -90.879966 -24.521926 0.000000 0.000000 0.000000 -7.125000 0.000000 0.000000 -55.010695 46.797509 3.520883 0.000000 0.000000 0.000000 -152.541734 -70.283910 -89.888886 -8.241227 -13.943023 -1.009570 14.496975 18.428375 -20.633626 0.000000 0.000000 0.000000 7.125000 0.000000 0.000000 26.556307 10.188112 24.289546
0.610935 17.762566 0.337766 -900.240045 69.481756 -885.651912 0.000000 0.000000 0.000000 -13.309103 -25.930035 -4.595009 0.126070 2.288548 6.303828 0.130117 4.855346 -10.290864 2.106349 -9.083870 -26.058336 0.000000 0.000000 0.000000 17.578929 9.568572 -4.339291 -0.286432 -3.441772 9.511111 0.335470 -20.703468 -26.655542 -0.248754 3.208788 -8.860589 4.341790 7.042083 -9.740258 -2.569979 10.883895 -15.781223 -5.106722 5.477933 -10.466974 -3.528230 -2.900190 -7.978611 17.964035 -4.072334 4.105500 5.897206 -1.148108 3.028031 0.000000 0.000000 0.000000 122.758470 -34.525704 -8.601058 114.337634 -57.638918 80.909895 -34.294876 -95.796563 -24.112947 0.000000 0.000000 0.000000 -7.125000 0.000000 0.000000 -56.152805 46.080893 2.233070 0.000000 0.000000 0.000000 -141.620669 -72.975559 -59.214059 -12.430602 -20.446616 -2.250892 14.403351 -1.157216 -19.265449 0.000000 0.000000 0.000000 7.125000 0.000000 0.000000 26.696243 11.449727 23.667819
0.530172 17.786077 0.505744 -899.134925 69.928376 -884.711861 0.000000 0.000000 0.000000 -12.238100 -25.903763 -5.192649 0.140734 2.417453 6.660811 0.120002 5.074839 -10.303582 1.689228 -8.183080 -23.273423 0.000000 0.000000 0.000000 18.342774 9.907424 -4.931593 -0.303118 -3.539728 9.785212 0.481149 -20.886932 -25.709582 -0.301318 3.529414 -9.756362 4.241166 6.693361 -8.099142 -1.366294 10.416552 -15.103198 -3.977504 5.244538 -10.891846 -3.421413 -2.374783 -8.226096 19.025233 -3.359574 4.071196 6.261985 -0.719584 3.006247 0.000000 0.000000 0.000000 129.937063 -28.482336 -2.540709 97.067245 -59.807017 66.116292 -27.703549 -95.388837 -23.481687 0.000000 0.000000 0.000000 -7.125000 0.000000 0.000000 -51.508503 46.706067 2.964876 0.000000 0.000000 0.000000 -141.463149 -72.028605 -48.596151 -16.188616 -25.775254 -3.727807 13.618838 -11.005258 -19.453173 0.000000 0.000000 0.000000 7.125000 0.000000 0.000000 26.231612 11.308324 23.228047
